<?xml version="1.0" encoding="UTF-8" standalone="no"?>
<svg
   xmlns:dc="http://purl.org/dc/elements/1.1/"
   xmlns:cc="http://creativecommons.org/ns#"
   xmlns:rdf="http://www.w3.org/1999/02/22-rdf-syntax-ns#"
   xmlns:svg="http://www.w3.org/2000/svg"
   xmlns="http://www.w3.org/2000/svg"
   id="svg32"
   version="1.1"
   viewBox="0 0 96.68 25.55">
  <metadata
     id="metadata36">
    <rdf:RDF>
      <cc:Work
         rdf:about="">
        <dc:format>image/svg+xml</dc:format>
        <dc:type
           rdf:resource="http://purl.org/dc/dcmitype/StillImage" />
      </cc:Work>
    </rdf:RDF>
  </metadata>
  <defs
     id="defs4">
    <style
       id="style2">.cls-1{fill:#5d5d5d;}.cls-2{fill:#fff;}.cls-2,.cls-3{fill-rule:evenodd;}.cls-3{fill:#009849;}</style>
  </defs>
  <title
     id="title6">logo</title>
  <g
     data-name="Layer 2"
     id="Layer_2">
    <g
       data-name="Layer 1"
       id="Layer_1-2">
      <polygon
         id="polygon8"
         points="0 5.14 4.4 5.14 7.77 14.71 11.31 5.11 15.74 5.11 10.02 19.61 5.55 19.61 0 5.14"
         class="cls-1" />
      <polygon
         id="polygon10"
         points="16.53 14.31 11.32 5.14 15.72 5.14 18.64 10.6 21.57 5.14 25.97 5.14 20.76 14.31 20.76 19.61 16.53 19.61 16.53 14.31"
         class="cls-1" />
      <path
         id="path12"
         d="M31.72,16.38a4.29,4.29,0,0,0,1.82-.33,2.19,2.19,0,0,0,1.06-1.17A6.11,6.11,0,0,0,35,12.47,7.34,7.34,0,0,0,34.64,10a2.17,2.17,0,0,0-1-1.25,4.12,4.12,0,0,0-1.87-.36H30v8ZM25.79,5.14h6.47A7.22,7.22,0,0,1,37.5,6.88q1.78,1.76,1.79,5.59,0,3.66-1.79,5.4a7.22,7.22,0,0,1-5.24,1.74H25.79Z"
         class="cls-1" />
      <polygon
         id="polygon14"
         points="42.43 14.31 37.22 5.14 41.62 5.14 44.54 10.6 47.46 5.14 51.87 5.14 46.66 14.31 46.66 19.61 42.43 19.61 42.43 14.31"
         class="cls-1" />
      <path
         id="path16"
         d="M58.42,19.84a7.68,7.68,0,0,1-5-1.52A5.2,5.2,0,0,1,51.57,14V5.14H55.8v8.45a2.33,2.33,0,0,0,2.62,2.65A2.32,2.32,0,0,0,61,13.59V5.14h4.22V14a5.62,5.62,0,0,1-.85,3.15,5.39,5.39,0,0,1-2.4,2,8.93,8.93,0,0,1-3.58.68"
         class="cls-1" />
      <polygon
         id="polygon18"
         points="69.53 8.29 65.87 8.29 65.87 5.14 77.51 5.14 77.51 8.29 73.75 8.29 73.75 19.61 69.53 19.61 69.53 8.29"
         class="cls-1" />
      <polygon
         id="polygon20"
         points="78.11 5.14 82.33 5.14 82.33 10.54 87.32 10.54 87.32 5.14 91.55 5.14 91.55 19.61 87.32 19.61 87.32 14.22 82.33 14.22 82.33 19.61 78.11 19.61 78.11 5.14"
         class="cls-1" />
      <rect
         id="rect22"
         height="14.47"
         width="4.22"
         y="5.14"
         x="92.45"
         class="cls-1" />
      <path
         id="path24"
         d="M9.41,10.17l1.91-5.23h4.46c-1,2.79-1.74,5.26-6.37,5.23"
         class="cls-2" />
      <path
         id="path26"
         d="M17.66,0l-2,5.11H11.33C12.41,2.24,12.9,0,17.66,0"
         class="cls-3" />
      <path
         id="path28"
         d="M82.1,24.36a1.08,1.08,0,0,1-.2.64,1.17,1.17,0,0,1-.56.41,2.46,2.46,0,0,1-.86.14,2.83,2.83,0,0,1-1.07-.2v-1a2.36,2.36,0,0,0,.52.28,1.45,1.45,0,0,0,.52.1.48.48,0,0,0,.29-.07.2.2,0,0,0,.1-.19.3.3,0,0,0,0-.16,1,1,0,0,0-.15-.13,3.61,3.61,0,0,0-.38-.16,1.18,1.18,0,0,1-.9-1.12,1,1,0,0,1,.41-.86,1.75,1.75,0,0,1,1.1-.32h.36l.29,0,.38.09v.95a2,2,0,0,0-.93-.26.56.56,0,0,0-.3.07.23.23,0,0,0-.11.19.25.25,0,0,0,.09.2,2.13,2.13,0,0,0,.39.2,2,2,0,0,1,.81.51.92.92,0,0,1,.25.66m-7,1.12V21.76h2.32v.88h-1.2v.54h1.13v.88H76.26v.54h1.29v.88Zm-2-.1a3.16,3.16,0,0,1-1.07.17,2.19,2.19,0,0,1-1-.23,1.53,1.53,0,0,1-.66-.65,2,2,0,0,1-.23-1,2.1,2.1,0,0,1,.26-1.05,1.76,1.76,0,0,1,.72-.71,2.17,2.17,0,0,1,1.07-.25,4.08,4.08,0,0,1,.93.11v1a1.58,1.58,0,0,0-.37-.15,2.12,2.12,0,0,0-.44-.05.91.91,0,0,0-1,1,1,1,0,0,0,.26.7,1,1,0,0,0,.71.26,1.82,1.82,0,0,0,.82-.21Zm-6.06.1V21.76h1.12v3.72Zm-3,0H62.77l-1.2-3.72h1.2l.57,2.29a2.86,2.86,0,0,1,.08.42h0a3.11,3.11,0,0,1,.08-.43l.56-2.28h1.16Zm-5.36-2.54a.4.4,0,0,0-.11-.29.49.49,0,0,0-.36-.11H58v.85h.2a.48.48,0,0,0,.36-.13A.39.39,0,0,0,58.67,22.94Zm.11,2.54-.28-.8a.88.88,0,0,0-.21-.37.38.38,0,0,0-.28-.14h0v1.31H56.85V21.76h1.49a2.06,2.06,0,0,1,1.15.26.85.85,0,0,1,.37.76,1,1,0,0,1-.21.65,1.22,1.22,0,0,1-.65.37h0a.86.86,0,0,1,.39.24,1.52,1.52,0,0,1,.29.48l.36.95Zm-6.3,0V21.76H54.8v.88H53.6v.54h1.12v.88H53.6v.54h1.28v.88Zm-1.89-1.12a1.08,1.08,0,0,1-.2.64,1.15,1.15,0,0,1-.55.41,2.48,2.48,0,0,1-.87.14,2.87,2.87,0,0,1-1.07-.2v-1a2.36,2.36,0,0,0,.52.28,1.54,1.54,0,0,0,.53.1.45.45,0,0,0,.28-.07.2.2,0,0,0,.1-.19.24.24,0,0,0,0-.16.5.5,0,0,0-.15-.13,2.85,2.85,0,0,0-.38-.16,1.18,1.18,0,0,1-.9-1.12,1.05,1.05,0,0,1,.41-.86,1.77,1.77,0,0,1,1.1-.32h.36l.3,0,.37.09v.95a1.92,1.92,0,0,0-.92-.26.53.53,0,0,0-.3.07.22.22,0,0,0-.12.19.23.23,0,0,0,.1.2,2.32,2.32,0,0,0,.38.2,2,2,0,0,1,.82.51A1,1,0,0,1,50.59,24.36Zm-7.05-.17v1.29H42.42V24.21l-1.14-2.45h1.28l.4,1.17a1.15,1.15,0,0,1,.06.21c0,.06,0,.12,0,.18h0a1.92,1.92,0,0,1,.08-.37l.39-1.19h1.19Zm-3.94,1a2.29,2.29,0,0,1-.63.21,3.17,3.17,0,0,1-.79.1,2.16,2.16,0,0,1-1.51-.49,1.76,1.76,0,0,1-.53-1.37,2,2,0,0,1,.26-1.05,1.72,1.72,0,0,1,.76-.7,2.6,2.6,0,0,1,1.15-.24,4,4,0,0,1,1,.14v1a2.87,2.87,0,0,0-.5-.16,2.78,2.78,0,0,0-.51,0,1,1,0,0,0-.74.27,1.06,1.06,0,0,0-.27.77,1,1,0,0,0,.23.72.78.78,0,0,0,.64.27.94.94,0,0,0,.28,0v-.53h-.71v-.85H39.6Zm-6.49-2.3a.37.37,0,0,0-.12-.29.46.46,0,0,0-.36-.11H32.4v.85h.21a.48.48,0,0,0,.36-.13A.42.42,0,0,0,33.11,22.94Zm.1,2.54-.27-.8a1.16,1.16,0,0,0-.21-.37.4.4,0,0,0-.28-.14H32.4v1.31H31.28V21.76h1.49a2.1,2.1,0,0,1,1.16.26.87.87,0,0,1,.37.76,1,1,0,0,1-.22.65,1.19,1.19,0,0,1-.64.37h0a1,1,0,0,1,.39.24,1.52,1.52,0,0,1,.28.48l.37.95Zm-6.3,0V21.76h2.32v.88H28v.54h1.12v.88H28v.54h1.28v.88Zm-3.14,0-1.32-1.79a4.07,4.07,0,0,1-.25-.39h0c0,.19,0,.39,0,.62v1.56h-1V21.76h1.06l1.26,1.71.06.08.07.09.06.1,0,.08h0a3,3,0,0,1,0-.39V21.76h1v3.72Zm-7,0V21.76h2.31v.88H17.92v.54H19v.88H17.92v.54H19.2v.88Z"
         class="cls-1" />
    </g>
  </g>
</svg>
